<?xml version="1.0" encoding="UTF-8" standalone="no"?>
<!DOCTYPE svg PUBLIC "-//W3C//DTD SVG 1.1//EN" "http://www.w3.org/Graphics/SVG/1.1/DTD/svg11.dtd">
<svg width="100%" height="100%" viewBox="0 0 1200 1050" version="1.1" xmlns="http://www.w3.org/2000/svg" xmlns:xlink="http://www.w3.org/1999/xlink" xml:space="preserve" xmlns:serif="http://www.serif.com/" style="fill-rule:evenodd;clip-rule:evenodd;stroke-linejoin:round;stroke-miterlimit:1.41421;">
    <g transform="matrix(1,0,0,1,0,-75)">
        <path d="M480.523,1103.05C381.527,1103.05 245.777,1093.39 245.777,1088C245.777,1082.61 347.025,1081.52 446.019,1081.52C545.016,1081.52 625.27,1085.89 625.27,1091.28C625.27,1096.67 579.52,1103.05 480.523,1103.05Z" style="fill:rgb(216,216,216);fill-rule:nonzero;"/>
        <rect x="445" y="1025" width="24" height="31" style="fill:rgb(252,207,178);fill-rule:nonzero;"/>
        <rect x="359" y="1025" width="24" height="31" style="fill:rgb(252,207,178);fill-rule:nonzero;"/>
        <rect x="435" y="1083" width="78" height="11" style="fill:white;fill-rule:nonzero;"/>
        <path d="M474,1053.45L474,1042.01C467,1042.47 463.056,1048 463.056,1053L444.467,1053.02L434.289,1083L513,1083L513,1076.43L474,1053.45Z" style="fill:rgb(55,55,55);fill-rule:nonzero;"/>
        <rect x="348" y="1083" width="44" height="11" style="fill:white;fill-rule:nonzero;"/>
        <path d="M358.289,1053L360.342,1053C360.342,1047 364.627,1041.56 370.824,1041.56C376.959,1041.56 381.289,1046.83 381.307,1053L382.289,1053L391.289,1083L347.289,1083L358.289,1053Z" style="fill:rgb(55,55,55);fill-rule:nonzero;"/>
        <path d="M337,714L337,761.548C339,770.178 345.596,779.666 352.086,784.74L352.496,1025L386.57,1025L386.047,787.404L438.402,787.747L438.594,1025L471,1025L471,714L337,714Z" style="fill:rgb(43,114,182);fill-rule:nonzero;"/>
        <rect x="436" y="1010" width="40" height="15" style="fill:rgb(128,179,221);fill-rule:nonzero;"/>
        <rect x="351" y="1010" width="40" height="15" style="fill:rgb(128,179,221);fill-rule:nonzero;"/>
        <path d="M512.873,351.186C507.687,317.644 491,228.148 409,222.299L409,222.101C409,222.083 407.984,222.058 407.515,222.045C405.659,221.993 403.797,221.995 402,222.02C400.205,221.995 398.731,221.993 396.876,222.045C396.405,222.058 396,222.083 396,222.101L396,222.29C313,228.028 296.598,317.622 291.408,351.186C286.63,388.427 291.489,435.261 291.489,435.261C434.976,453.262 512.781,435.261 512.781,435.261C512.781,435.261 517.65,388.426 512.873,351.186Z" style="fill:rgb(55,55,55);fill-rule:nonzero;"/>
        <path d="M283.592,775.449L313.451,772.552C313.391,771.921 307.349,708.806 308.815,655.412C310.061,610.039 325.078,534.706 325.229,533.95L295.815,528.049C295.175,531.236 280.142,606.641 278.827,654.588C277.308,709.885 283.334,772.798 283.592,775.449Z" style="fill:rgb(252,207,178);fill-rule:nonzero;"/>
        <path d="M480,556.24L519.854,540.09C516.287,496.07 472.512,444.164 403.039,444.164C333.563,444.164 290.175,496.07 286.606,540.09L327,556.24L327,761L480,761L480,556.24Z" style="fill:rgb(37,37,37);fill-rule:nonzero;"/>
        <path d="M560.168,615.191C539.139,615.191 519.156,603.913 502.453,582.202C494.916,572.407 489.225,562.073 485.375,554.073L513.197,542.675C516.362,549.068 520.854,557.014 526.59,564.375C547.461,591.168 564.992,585.291 570.752,583.36C585.207,578.515 594.158,562.913 597.359,536.988C600.074,514.997 597.256,494.755 597.229,494.553L626.928,490.32C627.516,494.445 640.631,591.577 580.287,611.805C573.525,614.07 566.791,615.191 560.168,615.191Z" style="fill:rgb(252,207,178);fill-rule:nonzero;"/>
        <path d="M681.645,532.209L542.762,498.562L567.632,395.904L706.516,429.551L681.645,532.209Z" style="fill:white;fill-rule:nonzero;"/>
        <path d="M552.029,492.975L545.911,491.492L551.592,500.592L557.713,502.075L552.029,492.975Z" style="fill:rgb(84,84,181);fill-rule:nonzero;"/>
        <path d="M576.508,498.905L570.39,497.423L576.072,506.522L582.191,508.005L576.508,498.905Z" style="fill:rgb(84,84,181);fill-rule:nonzero;"/>
        <path d="M564.402,495.972L558.283,494.489L563.965,503.59L570.084,505.072L564.402,495.972Z" style="fill:rgb(255,88,77);fill-rule:nonzero;"/>
        <path d="M588.748,501.87L582.628,500.387L588.312,509.488L594.431,510.971L588.748,501.87Z" style="fill:rgb(255,88,77);fill-rule:nonzero;"/>
        <path d="M613.227,507.801L607.106,506.318L612.79,515.418L618.909,516.901L613.227,507.801Z" style="fill:rgb(255,88,77);fill-rule:nonzero;"/>
        <path d="M601.121,504.867L595.001,503.385L600.684,512.485L606.804,513.968L601.121,504.867Z" style="fill:rgb(84,84,181);fill-rule:nonzero;"/>
        <path d="M625.299,510.725L619.182,509.243L624.861,518.343L630.98,519.826L625.299,510.725Z" style="fill:rgb(84,84,181);fill-rule:nonzero;"/>
        <path d="M649.779,516.655L643.66,515.173L649.342,524.273L655.461,525.756L649.779,516.655Z" style="fill:rgb(84,84,181);fill-rule:nonzero;"/>
        <path d="M637.671,513.723L631.552,512.24L637.234,521.34L643.354,522.823L637.671,513.723Z" style="fill:rgb(255,88,77);fill-rule:nonzero;"/>
        <path d="M662.018,519.621L655.898,518.139L661.582,527.239L667.699,528.721L662.018,519.621Z" style="fill:rgb(255,88,77);fill-rule:nonzero;"/>
        <path d="M674.391,522.619L668.271,521.136L673.953,530.236L680.074,531.719L674.391,522.619Z" style="fill:rgb(84,84,181);fill-rule:nonzero;"/>
        <path d="M700.478,454.474L701.96,448.353L692.861,454.035L691.379,460.155L700.478,454.474Z" style="fill:rgb(84,84,181);fill-rule:nonzero;"/>
        <path d="M575.108,397.714L568.989,396.232L574.672,405.331L580.791,406.814L575.108,397.714Z" style="fill:rgb(84,84,181);fill-rule:nonzero;"/>
        <path d="M599.586,403.645L593.468,402.163L599.149,411.262L605.27,412.745L599.586,403.645Z" style="fill:rgb(84,84,181);fill-rule:nonzero;"/>
        <path d="M587.481,400.712L581.361,399.23L587.045,408.329L593.164,409.811L587.481,400.712Z" style="fill:rgb(255,88,77);fill-rule:nonzero;"/>
        <path d="M611.826,406.611L605.706,405.128L611.39,414.227L617.51,415.71L611.826,406.611Z" style="fill:rgb(255,88,77);fill-rule:nonzero;"/>
        <path d="M636.305,412.541L630.186,411.058L635.869,420.157L641.987,421.64L636.305,412.541Z" style="fill:rgb(255,88,77);fill-rule:nonzero;"/>
        <path d="M624.198,409.608L618.079,408.125L623.762,417.225L629.882,418.707L624.198,409.608Z" style="fill:rgb(84,84,181);fill-rule:nonzero;"/>
        <path d="M648.377,415.465L642.26,413.983L647.941,423.083L654.061,424.564L648.377,415.465Z" style="fill:rgb(84,84,181);fill-rule:nonzero;"/>
        <path d="M672.857,421.396L666.738,419.914L672.422,429.013L678.541,430.495L672.857,421.396Z" style="fill:rgb(84,84,181);fill-rule:nonzero;"/>
        <path d="M660.749,418.463L654.629,416.98L660.314,426.08L666.432,427.563L660.749,418.463Z" style="fill:rgb(255,88,77);fill-rule:nonzero;"/>
        <path d="M685.096,424.361L678.977,422.878L684.66,431.978L690.779,433.46L685.096,424.361Z" style="fill:rgb(255,88,77);fill-rule:nonzero;"/>
        <path d="M697.469,427.358L691.35,425.876L697.031,434.975L703.152,436.458L697.469,427.358Z" style="fill:rgb(84,84,181);fill-rule:nonzero;"/>
        <path d="M703.41,442.367L704.895,436.246L695.793,441.93L694.311,448.049L703.41,442.367Z" style="fill:rgb(255,88,77);fill-rule:nonzero;"/>
        <path d="M697.512,466.714L698.995,460.593L689.895,466.277L688.412,472.395L697.512,466.714Z" style="fill:rgb(255,88,77);fill-rule:nonzero;"/>
        <path d="M691.581,491.191L693.064,485.072L683.966,490.755L682.483,496.874L691.581,491.191Z" style="fill:rgb(255,88,77);fill-rule:nonzero;"/>
        <path d="M694.516,479.085L695.998,472.966L686.898,478.648L685.416,484.768L694.516,479.085Z" style="fill:rgb(84,84,181);fill-rule:nonzero;"/>
        <path d="M688.656,503.264L690.139,497.145L681.04,502.827L679.558,508.948L688.656,503.264Z" style="fill:rgb(84,84,181);fill-rule:nonzero;"/>
        <path d="M685.659,515.637L687.143,509.516L678.043,515.199L676.561,521.318L685.659,515.637Z" style="fill:rgb(255,88,77);fill-rule:nonzero;"/>
        <path d="M568.625,423.679L570.107,417.56L561.009,423.242L559.526,429.363L568.625,423.679Z" style="fill:rgb(84,84,181);fill-rule:nonzero;"/>
        <path d="M571.559,411.574L573.041,405.453L563.941,411.137L562.459,417.256L571.559,411.574Z" style="fill:rgb(255,88,77);fill-rule:nonzero;"/>
        <path d="M565.66,435.92L567.143,429.799L558.043,435.483L556.561,441.602L565.66,435.92Z" style="fill:rgb(255,88,77);fill-rule:nonzero;"/>
        <path d="M559.729,460.397L561.213,454.278L552.113,459.961L550.63,466.081L559.729,460.397Z" style="fill:rgb(255,88,77);fill-rule:nonzero;"/>
        <path d="M562.663,448.292L564.146,442.173L555.047,447.854L553.564,453.974L562.663,448.292Z" style="fill:rgb(84,84,181);fill-rule:nonzero;"/>
        <path d="M556.805,472.47L558.287,466.351L549.188,472.033L547.705,478.154L556.805,472.47Z" style="fill:rgb(84,84,181);fill-rule:nonzero;"/>
        <path d="M553.807,484.844L555.291,478.724L546.191,484.406L544.707,490.526L553.807,484.844Z" style="fill:rgb(255,88,77);fill-rule:nonzero;"/>
        <path d="M610.363,450.825L569.742,440.983L575.856,415.75L616.477,425.591L610.363,450.825Z" style="fill:rgb(167,169,172);fill-rule:nonzero;"/>
        <path d="M672.096,467.898L619.502,455.156L620.172,452.387L672.766,465.128L672.096,467.898Z" style="fill:rgb(55,55,55);fill-rule:nonzero;"/>
        <path d="M669.583,478.268L616.99,465.526L617.66,462.757L670.254,475.499L669.583,478.268Z" style="fill:rgb(55,55,55);fill-rule:nonzero;"/>
        <path d="M587.838,485.283L563.358,479.352L566.902,464.724L591.381,470.654L587.838,485.283Z" style="fill:rgb(84,84,181);fill-rule:nonzero;"/>
        <path d="M592.974,467.533C587.046,466.096 581.053,469.751 579.617,475.68C578.182,481.607 581.837,487.599 587.765,489.036C593.693,490.472 599.686,486.818 601.121,480.89C602.559,474.961 598.902,468.969 592.974,467.533ZM587.419,490.459C580.705,488.833 576.566,482.047 578.193,475.335C579.82,468.621 586.604,464.482 593.318,466.109C600.032,467.735 604.172,474.521 602.546,481.235C600.919,487.947 594.134,492.086 587.419,490.459Z" style="fill:rgb(55,55,55);fill-rule:nonzero;"/>
        <path d="M593.641,464.78C586.193,462.976 578.67,467.566 576.865,475.013C575.061,482.459 579.65,489.984 587.098,491.789C594.545,493.592 602.07,489.002 603.874,481.556C605.678,474.109 601.087,466.584 593.641,464.78ZM586.664,493.578C578.23,491.535 573.032,483.012 575.075,474.579C577.118,466.146 585.641,460.947 594.074,462.99C602.507,465.033 607.706,473.557 605.663,481.99C603.62,490.422 595.098,495.621 586.664,493.578Z" style="fill:rgb(55,55,55);fill-rule:nonzero;"/>
        <path d="M608.189,516.037C608.189,518.522 605.98,520.537 603.256,520.537C600.533,520.537 598.324,518.522 598.324,516.037L598.324,492.611C598.324,490.126 600.533,488.111 603.256,488.111C605.98,488.111 608.189,490.126 608.189,492.611L608.189,516.037Z" style="fill:rgb(252,207,178);fill-rule:nonzero;"/>
        <path d="M614.275,516.843C614.275,521.685 610.705,525.609 606.299,525.609C601.895,525.609 598.324,521.685 598.324,516.843C598.324,512.001 601.895,508.076 606.299,508.076C610.705,508.076 614.275,512.001 614.275,516.843Z" style="fill:rgb(252,207,178);fill-rule:nonzero;"/>
        <path d="M430.902,447.162C426.977,446.228 424.74,445.929 419.902,445.249L417.371,418.859L389.34,417.84L388.272,444.94C382.514,445.514 379.414,446.006 374.822,447.123C374.707,448.522 374.818,449.725 374.875,451.167C375.563,468.402 388.656,481.75 404.119,480.983C419.582,480.215 431.561,465.621 430.873,448.387C430.863,448.103 430.92,447.443 430.902,447.162Z" style="fill:rgb(252,207,178);fill-rule:nonzero;"/>
        <path d="M418.519,430.83L418.513,430.768L418.52,430.83M388.86,430.004L388.859,430.004L388.859,423.375L389.122,423.375L388.86,430.004Z" style="fill:rgb(55,55,55);fill-rule:nonzero;"/>
        <path d="M408.176,431.85C398.665,431.85 388.963,430.023 388.86,430.004L389.122,423.375L417.773,423.375L418.513,430.768L418.519,430.83C415.472,431.579 411.839,431.85 408.176,431.85Z" style="fill:rgb(232,192,165);fill-rule:nonzero;"/>
        <path d="M483.443,345.397C484.184,390.354 448.34,427.398 403.383,428.139C358.426,428.879 321.381,393.033 320.643,348.076L320.143,317.718C319.402,272.762 355.246,235.718 400.203,234.977C445.16,234.238 482.207,270.082 482.945,315.04L483.443,345.397Z" style="fill:rgb(252,207,178);fill-rule:nonzero;"/>
        <path d="M344.006,346.374C344.205,358.463 334.588,368.426 322.527,368.625C310.465,368.822 300.523,359.184 300.323,347.092C300.125,335 309.742,325.04 321.807,324.841C333.869,324.644 343.809,334.283 344.006,346.374Z" style="fill:rgb(252,207,178);fill-rule:nonzero;"/>
        <path d="M338.154,425.84L317.492,430.83C317.492,430.83 314.314,346.811 318.947,301.065C318.947,301.065 328.68,254.729 340.137,245.112C354.938,232.69 416.059,230.678 416.059,230.678C416.059,230.678 343.385,258.683 338.154,425.84Z" style="fill:rgb(55,55,55);fill-rule:nonzero;"/>
        <path d="M409.684,248.323L502.338,400.529C502.338,400.529 510.564,328.826 484.363,292.105C445.082,237.054 409.684,248.323 409.684,248.323Z" style="fill:rgb(55,55,55);fill-rule:nonzero;"/>
        <path d="M301.292,313.364C295.839,287.481 321.98,214.15 322.814,186.838C323.416,167.063 340.197,159.91 352.303,157.408C367.689,154.231 388.014,156.363 395.367,170.376C404.457,187.705 426.355,203.594 432.715,208.34C452.137,222.832 480.67,254.286 486.063,279.868L301.292,313.364Z" style="fill:rgb(238,80,156);fill-rule:nonzero;"/>
        <path d="M502.527,292.544C502.773,294.216 501.207,295.601 499.469,295.855L293.578,328.87C291.837,329.125 289.941,328.252 289.694,326.583L291.205,288.529C290.957,286.856 292.525,285.473 294.261,285.217L484.178,255.341C485.92,255.084 487.814,255.956 488.064,257.627L502.527,292.544Z" style="fill:rgb(216,76,150);fill-rule:nonzero;"/>
        <path d="M442.393,381.624L371.805,380.308C371.805,380.308 383.789,405.489 406.625,405.489C429.186,405.489 441.389,386.678 442.393,381.624Z" style="fill:white;fill-rule:nonzero;"/>
        <path d="M434.385,350.847C435.818,356.036 440.951,359.15 445.859,357.795C450.764,356.443 453.578,351.14 452.15,345.95C450.717,340.759 445.582,337.646 440.672,338.998C435.77,340.351 432.953,345.655 434.385,350.847Z" style="fill-rule:nonzero;"/>
        <path d="M358.43,350.847C359.859,356.036 364.994,359.15 369.9,357.795C374.809,356.443 377.623,351.14 376.193,345.95C374.76,340.759 369.623,337.646 364.717,338.998C359.813,340.351 356.996,345.655 358.43,350.847Z" style="fill-rule:nonzero;"/>
        <rect x="852.391" y="618.402" width="29.368" height="453.088" style="fill:rgb(209,205,205);fill-rule:nonzero;"/>
        <rect x="823.871" y="583.036" width="164.856" height="37.288" style="fill:rgb(58,55,55);fill-rule:nonzero;"/>
        <path d="M745.253,519.645C745.253,489.213 769.923,464.543 800.355,464.543C830.787,464.543 855.457,489.213 855.457,519.645L855.457,608.666L745.253,608.666L745.253,519.645Z" style="fill:rgb(58,55,55);fill-rule:nonzero;"/>
        <path d="M778.119,608.836L877.627,608.836L866.6,542.713L767.872,542.506L778.119,608.836Z" style="fill:white;fill-rule:nonzero;"/>
        <path d="M804.892,608.666L933.892,608.666L919.595,522.944L791.607,522.677L804.892,608.666Z" style="fill:rgb(219,211,200);fill-rule:nonzero;"/>
        <path d="M869.122,565.473L791.607,522.677L919.595,522.944L869.122,565.473Z" style="fill:rgb(243,237,224);fill-rule:nonzero;"/>
        <path d="M800.355,464.543L933.625,464.543C964.058,464.543 988.727,489.213 988.727,519.645L988.727,609.666L855.457,609.666L855.457,519.645C855.457,489.213 830.787,464.543 800.355,464.543Z" style="fill:rgb(84,84,181);fill-rule:nonzero;"/>
        <path d="M800.205,464.543C800.219,464.543 800.233,464.543 800.247,464.543C800.232,464.543 800.22,464.543 800.205,464.543ZM800.276,464.543C800.302,464.543 800.328,464.543 800.355,464.543C800.329,464.543 800.302,464.543 800.276,464.543Z" style="fill:rgb(184,184,184);fill-rule:nonzero;"/>
        <path d="M855.457,522.81L839.318,522.776L839.318,519.645C839.318,491.956 818.892,469.042 792.285,465.137C794.872,464.758 797.515,464.55 800.205,464.543L800.355,464.543C830.787,464.543 855.457,489.213 855.457,519.645L855.457,522.81Z" style="fill:rgb(48,46,46);fill-rule:nonzero;"/>
        <path d="M855.457,608.666L839.318,608.666L839.318,549.018L855.457,557.928L855.457,608.666Z" style="fill:rgb(177,171,162);fill-rule:nonzero;"/>
        <path d="M855.457,557.928L839.318,549.018L839.318,522.776L855.457,522.81L855.457,557.928Z" style="fill:rgb(196,192,181);fill-rule:nonzero;"/>
        <path d="M855.457,608.666L855.457,557.928L855.457,522.81L855.457,519.645L855.457,608.666Z" style="fill:rgb(69,69,147);fill-rule:nonzero;"/>
        <path d="M842.297,672.59C837.114,703.021 808.183,727.693 777.681,727.693C747.177,727.693 726.694,703.021 731.932,672.59L745.253,608.666L855.457,608.666L842.297,672.59Z" style="fill:rgb(106,106,204);fill-rule:nonzero;"/>
        <path d="M903.731,516.544C903.731,525.097 896.797,532.032 888.244,532.032C879.69,532.032 872.757,525.097 872.757,516.544C872.757,507.992 879.69,501.057 888.244,501.057C896.797,501.057 903.731,507.992 903.731,516.544Z" style="fill:rgb(255,88,77);fill-rule:nonzero;"/>
        <path d="M920.025,438L883.243,438L883.243,516.544L892.792,516.544L892.792,457.171L920.025,450.583L920.025,438Z" style="fill:rgb(255,88,77);fill-rule:nonzero;"/>
        <path d="M897.793,516.544C897.793,521.818 893.518,526.093 888.244,526.093C882.971,526.093 878.695,521.818 878.695,516.544C878.695,511.271 882.971,506.996 888.244,506.996C893.518,506.996 897.793,511.271 897.793,516.544Z" style="fill:rgb(216,64,61);fill-rule:nonzero;"/>
        <path d="M881.759,633.994L852.391,633.994L852.391,623.561L853.057,620.324L881.759,620.324L881.759,633.994Z" style="fill:rgb(189,186,186);fill-rule:nonzero;"/>
        <path d="M852.391,623.561L852.391,620.324L853.057,620.324L852.391,623.561Z" style="fill:rgb(97,97,185);fill-rule:nonzero;"/>
        <path d="M801.607,1078.92C801.607,1078.92 801,1049 785,1016C808,1042 810.355,1058 810.355,1058L820,968L825,1061C825,1061 830,1018.67 852,993C842.667,1018.67 837,1056 843,1066C849,1055 862.391,962 862.391,962C862.391,962 871.388,1025.44 869.333,1059.33C884.648,1033.83 882.757,991 882.757,991L893.243,1061C893.243,1061 904.595,1006.33 924,987.333C913.405,1026.33 913.731,1066 913.731,1066L939.333,1009.33L930.025,1078.92C930.025,1078.92 862.166,1092.67 801.607,1078.92Z" style="fill:rgb(175,172,172);fill-rule:nonzero;"/>
    </g>
</svg>
